<svg width="34px" height="16px" viewBox="0 0 34 16" version="1.1" xmlns="http://www.w3.org/2000/svg" xmlns:xlink="http://www.w3.org/1999/xlink">
    <defs></defs>
    <g id="Page-1" stroke="none" stroke-width="1" fill="none" fill-rule="evenodd">
        <g id="screen_5" transform="translate(-58.000000, -552.000000)" fill="#FFFFFF" fill-rule="nonzero" stroke="#FFFFFF" stroke-width="1.1">
            <g id="left_menu" transform="translate(47.000000, 110.000000)">
                <g id="eyeglasses" transform="translate(12.000000, 443.000000)">
                    <path d="M31.4666667,5.83333333 L30.304,5.83333333 C29.7968,2.52816667 27.184,0 24.0384,0 C20.9333333,0 18.3338667,2.40275 17.7317333,5.58775 C17.2138667,5.11291667 16.6229333,4.86091667 16,4.86091667 C15.3776,4.86091667 14.7872,5.11291667 14.2693333,5.58716667 C13.6741333,2.40216667 11.1066667,0 8.0384,0 C4.66986667,0 1.90133333,2.82975 1.6272,6.41666667 L0.533333333,6.41666667 C0.2384,6.41666667 0,6.678 0,7 C0,7.322 0.2384,7.58333333 0.533333333,7.58333333 L1.6272,7.58333333 C1.90133333,11.17025 4.66986667,14 8.0384,14 C11.4874667,14 14.2976,10.9625833 14.3909333,7.19191667 C14.8458667,6.44233333 15.4122667,6.02758333 16,6.02758333 C16.5877333,6.02758333 17.1541333,6.44291667 17.6090667,7.19191667 C17.704,10.9625833 20.5482667,14 24.0384,14 C27.5461333,14 30.4,10.8599167 30.4,7 L31.4666667,7 C31.7616,7 32,6.73866667 32,6.41666667 C32,6.09466667 31.7616,5.83333333 31.4666667,5.83333333 Z M8.0384,12.8333333 C5.0768,12.8333333 2.66666667,10.2165 2.66666667,7 C2.66666667,3.7835 5.0768,1.16666667 8.0384,1.16666667 C11.008,1.16666667 13.3333333,3.72925 13.3333333,7 C13.3333333,10.27075 11.008,12.8333333 8.0384,12.8333333 Z M24.0384,12.8333333 C21.0768,12.8333333 18.6666667,10.2165 18.6666667,7 C18.6666667,3.7835 21.0768,1.16666667 24.0384,1.16666667 C27.008,1.16666667 29.3333333,3.72925 29.3333333,7 C29.3333333,10.27075 27.008,12.8333333 24.0384,12.8333333 Z" id="Shape"></path>
                </g>
            </g>
        </g>
    </g>
</svg>