<svg width="700" height="703" viewBox="0 0 700 703" fill="none" xmlns="http://www.w3.org/2000/svg">
    <path fill-rule="evenodd" clip-rule="evenodd" d="M273.261 352.319C273.261 394.074 307.11 427.923 348.866 427.923C368.917 427.923 388.148 419.958 402.327 405.779C416.505 391.601 424.471 372.37 424.471 352.319C424.471 310.563 390.621 276.714 348.866 276.714C307.11 276.714 273.261 310.563 273.261 352.319ZM317.654 339.173C322.874 326.538 335.196 318.296 348.866 318.296C367.467 318.296 382.567 333.339 382.636 351.941C382.687 365.611 374.492 377.963 361.877 383.23C349.262 388.496 334.716 385.638 325.032 375.99C315.347 366.342 312.435 351.807 317.654 339.173Z" fill="#D4D4D4"/>
    <path d="M479.41 357.359C468.263 357.379 459.034 348.703 458.367 337.576C457.737 328.881 442.364 125.378 254.99 125.378C84.1229 125.378 42.9183 330.519 42.5403 332.661C40.3481 344.109 29.2906 351.613 17.8427 349.42C6.39475 347.228 -1.10854 336.171 1.08362 324.723C1.08362 322.329 49.5967 83.1653 254.99 83.1653C481.804 83.1653 500.328 332.409 500.454 335.181C500.833 340.773 498.952 346.283 495.233 350.476C491.513 354.669 486.267 357.194 480.67 357.485L479.41 357.359Z" fill="#D4D4D4"/>
    <path d="M369.279 495.968C358.213 495.376 349.476 486.35 349.244 475.271C349.013 464.191 357.365 454.808 368.397 453.755C376.714 453.755 572.908 441.154 572.656 249.244C575.073 176.144 534.449 108.405 468.826 76.1089C435.645 58.5115 399.585 46.9894 362.349 42.0867C350.762 41.008 342.243 30.7403 343.322 19.1532C344.4 7.5661 354.668 -0.95267 366.255 0.126009C368.775 0.126009 614.365 25.3276 614.869 249.244C614.869 481.981 372.807 495.842 370.287 495.968H369.279Z" fill="#D4D4D4"/>
    <path d="M444.884 614.415V614.415C224.496 614.415 208.367 380.166 208.241 377.772C207.813 370.254 211.429 363.079 217.726 358.95C224.023 354.82 232.045 354.364 238.769 357.752C245.494 361.141 249.9 367.86 250.328 375.378C250.328 383.317 264.567 572.203 444.884 572.203V572.203C516.406 574.956 583.488 537.575 618.775 475.302C637.332 444.092 649.896 409.69 655.822 373.866C657.756 362.723 668.107 355.068 679.328 356.484C690.549 357.899 698.675 367.884 697.782 379.158C697.908 381.552 666.028 614.415 444.884 614.415Z" fill="#D4D4D4"/>
    <path d="M325.68 702.747C324.129 702.877 322.569 702.877 321.018 702.747C318.75 702.747 94.2036 649.32 94.2036 431.2C94.2036 213.08 322.656 199.723 324.924 199.597C332.771 198.757 340.433 202.35 344.804 208.921C349.175 215.491 349.528 223.947 345.721 230.859C341.914 237.771 334.578 241.992 326.688 241.809C319.002 241.809 136.416 252.646 136.416 430.822C136.416 615.423 328.579 660.66 330.469 661.164C340.749 663.714 347.563 673.47 346.418 684C345.272 694.53 336.521 702.593 325.932 702.873L325.68 702.747Z" fill="#D4D4D4"/>
    <path d="M58.6694 94.8841C79.0599 94.8841 95.5898 78.3543 95.5898 57.9637C95.5898 37.5732 79.0599 21.0434 58.6694 21.0434C38.2788 21.0434 21.749 37.5732 21.749 57.9637C21.749 78.3543 38.2788 94.8841 58.6694 94.8841Z" fill="#D4D4D4"/>
    <path fill-rule="evenodd" clip-rule="evenodd" d="M0.705566 57.9637C0.705566 89.9762 26.6568 115.927 58.6693 115.927C90.6817 115.927 116.633 89.9762 116.633 57.9637C116.633 25.9512 90.6817 0 58.6693 0C26.6568 0 0.705566 25.9512 0.705566 57.9637ZM42.9183 57.9637C42.9183 49.2647 49.9702 42.2127 58.6693 42.2127C67.3683 42.2127 74.4203 49.2647 74.4203 57.9637C74.4203 66.6628 67.3683 73.7147 58.6693 73.7147C49.9702 73.7147 42.9183 66.6628 42.9183 57.9637Z" fill="#D4D4D4"/>
    <path fill-rule="evenodd" clip-rule="evenodd" d="M590.549 648.185C590.549 678.319 614.977 702.747 645.111 702.747C675.244 702.747 699.672 678.319 699.672 648.185C699.672 618.052 675.244 593.624 645.111 593.624C614.977 593.624 590.549 618.052 590.549 648.185ZM635.31 648.248C635.31 642.368 639.377 637.269 645.111 635.963C650.163 634.811 655.404 636.87 658.323 641.151C661.241 645.433 661.241 651.064 658.323 655.346C655.404 659.627 650.163 661.686 645.111 660.534C639.377 659.228 635.31 654.129 635.31 648.248Z" fill="#D4D4D4"/>
    <path d="M185.559 202.117C192.31 202.117 197.782 196.645 197.782 189.894C197.782 183.144 192.31 177.671 185.559 177.671C178.809 177.671 173.337 183.144 173.337 189.894C173.337 196.645 178.809 202.117 185.559 202.117Z" fill="#D4D4D4"/>
    <path d="M511.29 528.73C518.598 528.73 524.521 522.806 524.521 515.499C524.521 508.192 518.598 502.268 511.29 502.268C503.983 502.268 498.06 508.192 498.06 515.499C498.06 522.806 503.983 528.73 511.29 528.73Z" fill="#D4D4D4"/>
</svg>
