<svg width="18px" height="27px" viewBox="0 0 18 27" version="1.1" xmlns="http://www.w3.org/2000/svg" xmlns:xlink="http://www.w3.org/1999/xlink">
    <defs></defs>
    <g id="Page-1" stroke="none" stroke-width="1" fill="none" fill-rule="evenodd">
        <g id="screen_5" transform="translate(-66.000000, -664.000000)" fill="#FFFFFF" fill-rule="nonzero">
            <g id="left_menu" transform="translate(47.000000, 110.000000)">
                <g id="scroll" transform="translate(19.000000, 554.000000)">
                    <path d="M9.01232305,22 L4,17.347611 L5.62249996,16 L9.00796091,19.142383 L12.373356,16.0019151 L14,17.345696 L9.01232305,22 Z M18,20.671875 L18,6.328125 C18,2.83879851 15.0813959,0 11.4939759,0 L6.5060241,0 C2.91860409,0 0,2.83879851 0,6.328125 L0,20.671875 C0,24.1612015 2.91860409,27 6.5060241,27 L11.4939759,27 C15.0813959,27 18,24.1612015 18,20.671875 Z M11.5555556,2 C14.0062934,2 16,3.9106355 16,6.25925926 L16,20.7407407 C16,23.0893645 14.0062934,25 11.5555556,25 L6.44444444,25 C3.99370661,25 2,23.0893645 2,20.7407407 L2,6.25925926 C2,3.9106355 3.99370661,2 6.44444444,2 L11.5555556,2 Z M9,4 C8.44765625,4 8,4.44765625 8,5 C8,5.55234375 8.44765625,6 9,6 C9.55234375,6 10,5.55234375 10,5 C10,4.44765625 9.55234375,4 9,4 Z M9,9 C8.44765625,9 8,9.44765625 8,10 C8,10.5523438 8.44765625,11 9,11 C9.55234375,11 10,10.5523438 10,10 C10,9.44765625 9.55234375,9 9,9 Z M9,13 C8.44765625,13 8,13.4476562 8,14 C8,14.5523438 8.44765625,15 9,15 C9.55234375,15 10,14.5523438 10,14 C10,13.4476562 9.55234375,13 9,13 Z" id="Shape"></path>
                </g>
            </g>
        </g>
    </g>
</svg>