<svg width="31px" height="19px" viewBox="0 0 31 19" version="1.1" xmlns="http://www.w3.org/2000/svg" xmlns:xlink="http://www.w3.org/1999/xlink">
    <defs></defs>
    <g id="Page-1" stroke="none" stroke-width="1" fill="none" fill-rule="evenodd">
        <g id="screen_5" transform="translate(-59.000000, -442.000000)" fill="#FFFFFF" fill-rule="nonzero">
            <g id="left_menu" transform="translate(47.000000, 110.000000)">
                <g id="eye" transform="translate(12.000000, 332.000000)">
                    <path d="M30.9278765,9.13703283 C30.9174198,9.11181093 30.9059603,9.08699152 30.8934981,9.06257458 C29.5187911,6.3885174 27.3793076,4.12659667 24.7066721,2.52125008 C21.9605527,0.871765179 18.776968,0 15.5002751,0 C12.2235821,0 9.03985415,0.871899338 6.29373479,2.5215184 C3.63083984,4.12096199 1.49737253,6.37241832 0.122092579,9.03359624 C-0.0320373272,9.31009794 -0.0434967998,9.64442216 0.106335804,9.93594967 C1.48089954,12.6104093 3.62038308,14.8727325 6.29330506,16.4783474 C9.03956767,18.1281007 12.2232956,19 15.5002751,19 C18.7771113,19 21.9608392,18.1281007 24.7069586,16.4784816 C27.3798806,14.8730009 29.5192209,12.6108118 30.8939279,9.93662046 C31.0225604,9.68614561 31.0345929,9.39622801 30.9278765,9.13703283 Z M15.5002751,16.9874808 C9.97351468,16.9874808 4.84010069,14.0642904 2.27718964,9.49979876 C4.84010069,4.93530712 9.97351468,2.01225083 15.5002751,2.01225083 C21.0268922,2.01225083 26.1604495,4.93557544 28.7233605,9.49993292 C26.1603062,14.0640221 21.026749,16.9874808 15.5002751,16.9874808 Z" id="Shape"></path>
                    <path d="M15.5,5 C13.0187593,5 11,7.0187593 11,9.5 C11,11.9812407 13.0187593,14 15.5,14 C17.9812407,14 20,11.9812407 20,9.5 C20,7.0187593 17.9812407,5 15.5,5 Z M15.5,11.9493879 C14.1494668,11.9493879 13.0506121,10.8505332 13.0506121,9.5 C13.0506121,8.14946684 14.1494668,7.05061215 15.5,7.05061215 C16.8505332,7.05061215 17.9493879,8.14946684 17.9493879,9.5 C17.9493879,10.8505332 16.8505332,11.9493879 15.5,11.9493879 Z" id="Shape"></path>
                </g>
            </g>
        </g>
    </g>
</svg>