<svg width="31px" height="36px" viewBox="0 0 31 36" version="1.1" xmlns="http://www.w3.org/2000/svg" xmlns:xlink="http://www.w3.org/1999/xlink">
    <defs></defs>
    <g id="Page-1" stroke="none" stroke-width="1" fill="none" fill-rule="evenodd" opacity="0.200000003">
        <g id="screen_5" transform="translate(-238.000000, -117.000000)" fill="#000000" fill-rule="nonzero">
            <g id="main" transform="translate(150.000000, 0.000000)">
                <g id="icon" transform="translate(70.000000, 100.000000)">
                    <g id="heaven-2" transform="translate(18.000000, 17.000000)">
                        <path d="M25.42,22.1876923 C25.10194,22.1876923 24.78636,22.2141538 24.47574,22.2664615 C23.76336,20.8916923 22.32186,20 20.73528,20 C19.468,20 18.29496,20.5538462 17.50198,21.5058462 C16.244,20.9636923 14.756,20.9636923 13.49802,21.5058462 C12.70442,20.5538462 11.532,20 10.2641,20 C8.6769,20 7.23602,20.8916923 6.52426,22.2670769 C6.21364,22.2147692 5.89744,22.1883077 5.58,22.1883077 C2.50356,22.1883077 0,24.6726154 0,27.7267692 C0,30.8289231 2.61454,33.344 5.72508,33.2633846 C6.72514,34.9612308 8.53368,36 10.54,36 C11.86866,36 13.13098,35.5396923 14.13662,34.696 C15.01516,34.976 15.98422,34.976 16.86276,34.696 C17.86902,35.5396923 19.13134,36 20.46,36 C22.46632,36 24.27486,34.9612308 25.27492,33.2633846 C25.32328,33.2646154 25.37164,33.2652308 25.42,33.2652308 C28.49644,33.2652308 31,30.7809231 31,27.7267692 C31,24.6726154 28.49644,22.1876923 25.42,22.1876923 Z M25.42,32.0338462 C25.27182,32.0338462 25.12426,32.0264615 24.98042,32.0116923 C24.72436,31.9883077 24.4745,32.1218462 24.36042,32.3538462 C23.62448,33.8436923 22.12966,34.7692308 20.46,34.7692308 C19.32354,34.7692308 18.24846,34.336 17.43316,33.5489231 C17.31536,33.4344615 17.15912,33.3747692 17.00102,33.3747692 C16.9198,33.3747692 16.83734,33.3901538 16.75984,33.4233846 C15.96066,33.7587692 15.03996,33.7587692 14.24078,33.4233846 C14.01138,33.3261538 13.7454,33.376 13.56746,33.5489231 C12.75154,34.336 11.67646,34.7692308 10.54,34.7692308 C8.86972,34.7692308 7.37552,33.8436923 6.63958,32.3538462 C6.5255,32.1218462 6.27564,31.9913846 6.01958,32.0116923 C5.87512,32.0264615 5.72818,32.0338462 5.57938,32.0338462 C3.18618,32.0338462 1.23938,30.1009231 1.23938,27.7261538 C1.23938,25.3513846 3.18618,23.4184615 5.57938,23.4184615 C5.96874,23.4184615 6.35438,23.4695385 6.72576,23.5698462 C7.03886,23.6529231 7.36436,23.4855385 7.47286,23.1827692 C7.8926,22.0153846 9.01418,21.2307692 10.2641,21.2307692 C11.29268,21.2307692 12.2326,21.7483077 12.7782,22.6153846 C12.95428,22.8966154 13.32256,22.9876923 13.61334,22.8233846 C14.75662,22.1704615 16.24276,22.1704615 17.38604,22.8233846 C17.67682,22.9889231 18.0451,22.8972308 18.22118,22.6153846 C18.76678,21.7483077 19.7067,21.2307692 20.73528,21.2307692 C21.9852,21.2307692 23.10678,22.0153846 23.52652,23.1833846 C23.63564,23.4861538 23.96176,23.6529231 24.27362,23.5704615 C24.64438,23.4701538 25.03002,23.4190769 25.42,23.4190769 C27.8132,23.4190769 29.76,25.352 29.76,27.7267692 C29.76,30.1015385 27.81258,32.0338462 25.42,32.0338462 Z" id="Shape"></path>
                        <path d="M5.25372407,8.21278678 C5.66611523,8.23988382 6.0473373,8.09085009 6.35063661,7.76504042 L6.5262625,7.57600629 L6.5262625,4.96178692 L6.17980597,4.78823682 C6.02995453,4.71339737 5.54983051,4.42242675 5.31786048,4.08371373 C5.27889911,4.0262938 5.2159615,3.92048631 5.23154605,3.85145337 C5.25612169,3.7411297 5.43654283,3.53080504 5.86331973,3.30177052 C6.03235215,3.20951154 6.1624232,3.18693067 6.24873763,3.23338275 C6.34164552,3.28306066 6.6617282,3.54628906 6.88230952,4.83985023 C7.18800646,6.63148083 6.95603643,9.03473038 6.31766929,10.6831338 C5.45572381,12.9096074 5.39638264,15.3051149 6.14444103,17.6090086 C6.20498101,17.7954621 6.38000749,18.1232073 6.87211962,18.2238534 C6.96682573,18.2432085 7.07531818,18.2522408 7.1922023,18.2522408 C7.93606485,18.2522408 9.0341762,17.8864307 9.35126185,17.4902978 C9.51609844,17.2844893 9.56764733,17.0160996 9.48912518,16.7728713 C9.40221134,16.5051268 9.30930345,16.2412532 9.21699496,15.9799603 C8.742865,14.636076 8.33407028,13.4747742 8.87713189,12.0728249 C9.16604547,11.3276563 9.90391396,9.25344222 10.132887,7.09664672 L10.8042214,7.09664672 L10.8042214,19.3548323 L12.0030329,19.3548323 L12.0030329,7.09664672 L13.2018445,7.09664672 L13.2018445,20 L14.400656,20 L14.400656,7.09664672 L15.5994675,7.09664672 L15.5994675,20 L16.798279,20 L16.798279,7.09664672 L17.9970906,7.09664672 L17.9970906,19.3548323 L19.1959021,19.3548323 L19.1959021,7.09664672 L19.8666371,7.09664672 C20.0956101,9.25344222 20.8334786,11.3276563 21.1223922,12.0728249 C21.6648544,13.4747742 21.2560597,14.636076 20.7825291,15.9799603 C20.6902206,16.2412532 20.5973127,16.5057719 20.5103989,16.7728713 C20.4318768,17.0160996 20.4834257,17.2844893 20.6482622,17.4902978 C20.9653479,17.8857856 22.0634592,18.2522408 22.8073218,18.2522408 C22.9242059,18.2522408 23.0326984,18.2432085 23.1274045,18.2238534 C23.6195166,18.1232073 23.7945431,17.7954621 23.8544837,17.6096538 C24.6031414,15.3051149 24.5432009,12.9096074 23.6812554,10.6831338 C23.0434877,9.03473038 22.8109182,6.632126 23.1172146,4.83985023 C23.3383953,3.54628906 23.6578786,3.28306066 23.7507865,3.23338275 C23.8365015,3.18564034 23.9659731,3.20951154 24.1368038,3.30177052 C24.5629813,3.53145021 24.7434024,3.74177487 24.767978,3.85145337 C24.7835626,3.92048631 24.720625,4.02693897 24.6816636,4.08306856 C24.4520912,4.41920091 23.9809583,4.70630052 23.8197181,4.78823682 L23.4732616,4.96178692 L23.4732616,7.57600629 L23.6488875,7.76504042 C23.9515874,8.09149526 24.3310112,8.24052899 24.7458,8.21278678 C25.5579948,8.14697968 26.45051,7.36568163 27.5528172,5.75534314 C28.0353388,5.05082006 28.1336414,4.00693878 27.8171551,2.96241233 C27.4179509,1.6482058 26.4936672,0.630776389 25.344007,0.24109512 C24.1350055,-0.167941179 22.9535768,-0.0543916703 22.017305,0.565614455 C20.9060067,1.29981526 20.188518,2.66305453 19.8858181,4.61662222 C19.8252781,5.00178731 19.8001031,5.40179126 19.7971061,5.80695656 L19.1959021,5.80695656 L19.1959021,3.17596282 L17.9970906,3.17596282 L17.9970906,5.80695656 L16.798279,5.80695656 L16.798279,1.29078291 L15.5994675,1.29078291 L15.5994675,5.80695656 L14.400656,5.80695656 L14.400656,1.29078291 L13.2018445,1.29078291 L13.2018445,5.80695656 L12.0030329,5.80695656 L12.0030329,3.17596282 L10.8042214,3.17596282 L10.8042214,5.80695656 L10.202418,5.80695656 C10.2000204,5.40179126 10.174246,5.00243248 10.1149048,4.61726739 C9.81220488,2.6636997 9.09471619,1.29981526 7.9834179,0.566259623 C7.0465467,-0.0524561673 5.86451854,-0.167296012 4.65671593,0.241740287 C3.50705568,0.631421557 2.582772,1.64885096 2.18356776,2.96305749 C1.86588271,4.00758394 1.96478466,5.05146522 2.44730629,5.75598831 C3.54961349,7.3663268 4.44092986,8.14697968 5.25372407,8.21278678 Z M21.0678463,4.83017271 C21.311205,3.25983462 21.8416791,2.19595314 22.643684,1.66562532 C23.5032319,1.09852295 24.478465,1.30175076 24.9843635,1.47272019 C25.9044514,1.783691 26.4618987,2.65337702 26.6770854,3.36370661 C26.8712928,4.00306777 26.8365273,4.62629973 26.5871745,4.99146463 C25.4303214,6.68115874 24.8459008,6.90116092 24.6720731,6.92503212 L24.6720731,5.75663348 C24.9609867,5.56888969 25.3667844,5.25791888 25.6461075,4.84952774 C26.0057509,4.32436127 26.0003563,3.8527437 25.9332228,3.55016007 C25.8109441,3.00370306 25.3865648,2.53208549 24.6720731,2.14756557 C24.0181214,1.79465885 23.518217,1.91595038 23.2149177,2.07917779 C22.5885387,2.41595532 22.1701535,3.24306026 21.937584,4.60758987 C21.5881305,6.65277137 21.8440767,9.29473295 22.5741529,11.180558 C23.3042292,13.0670283 23.3767573,15.0134991 22.7893396,16.9702926 C22.7887402,16.9702926 22.7875414,16.9702926 22.7863426,16.9702926 C22.538788,16.9702926 22.0976254,16.86384 21.7943261,16.7470646 C21.8302904,16.6438378 21.8662547,16.5412562 21.9028185,16.4380293 C22.4201057,14.9709181 22.9547756,13.4534837 22.2282958,11.5773361 C21.642077,10.0624825 21.0942201,8.05343036 21.0103033,6.30760667 L21.0103033,5.80695656 L21.0019116,5.80695656 C21.0043093,5.4669532 21.0198938,5.13598219 21.0678463,4.83017271 Z M3.32243871,3.36370661 C3.53762537,2.65337702 4.09567214,1.78433617 5.01516057,1.47272019 C5.52165844,1.30110559 6.49749102,1.09852295 7.35584007,1.66562532 C8.15844439,2.19595314 8.68891849,3.26047979 8.93167782,4.83017271 C9.23737476,6.8037406 8.53247358,9.6089296 7.77062886,11.576691 C7.04414908,13.4528385 7.57881902,14.9702729 8.09610619,16.4373842 C8.13207053,16.5399658 8.16863429,16.6425475 8.20459863,16.7464195 C7.90129932,16.8631948 7.46013668,16.9696475 7.2125821,16.9696475 C7.21138328,16.9696475 7.21018447,16.9696475 7.20958507,16.9696475 C6.62276683,15.0134991 6.69469552,13.0663831 7.42477174,11.1799129 C8.15484795,9.29408778 8.41139362,6.6521262 8.06194006,4.6069447 C7.82877122,3.24241509 7.4109854,2.41531015 6.78400698,2.07853263 C6.48010826,1.91466004 5.98020385,1.79465885 5.32745098,2.1469204 C4.6123599,2.53144033 4.18798062,3.00305789 4.06570185,3.5495149 C3.997969,3.85209854 3.99257435,4.32307093 4.3522178,4.84952774 C4.63214029,5.25791888 5.03733859,5.56824452 5.32685157,5.75598831 L5.32685157,6.92438695 C5.1530239,6.90051575 4.56860328,6.68051358 3.41175016,4.99081946 C3.16299677,4.62629973 3.12823124,4.00306777 3.32243871,3.36370661 Z" id="Shape"></path>
                    </g>
                </g>
            </g>
        </g>
    </g>
</svg>