<svg width="32px" height="49px" viewBox="0 0 32 49" version="1.1" xmlns="http://www.w3.org/2000/svg" xmlns:xlink="http://www.w3.org/1999/xlink">
    <defs></defs>
    <g id="Page-1" stroke="none" stroke-width="1" fill="none" fill-rule="evenodd">
        <g id="screen_5" transform="translate(-1462.000000, -931.000000)" fill="#000000" fill-rule="nonzero">
            <g id="scroll" transform="translate(1462.000000, 931.000000)">
                <g id="Shape">
                    <path d="M16.0229668,41.1661758 L7.37048193,32.0840988 L10.1713103,29.4533844 L16.0154367,35.5877304 L21.8249247,29.4571228 L24.6329066,32.0803604 L16.0229668,41.1661758 Z M32,37.515625 L32,11.484375 C32,5.15189359 26.8113705,0 20.4337349,0 L11.5662651,0 C5.18862949,0 0,5.15189359 0,11.484375 L0,37.515625 C0,43.8481064 5.18862949,49 11.5662651,49 L20.4337349,49 C26.8113705,49 32,43.8481064 32,37.515625 Z M20.4337349,3.828125 C24.6856174,3.828125 28.1445783,7.26259615 28.1445783,11.484375 L28.1445783,37.515625 C28.1445783,41.7374038 24.6856174,45.171875 20.4337349,45.171875 L11.5662651,45.171875 C7.31438255,45.171875 3.85542169,41.7374038 3.85542169,37.515625 L3.85542169,11.484375 C3.85542169,7.26259615 7.31438255,3.828125 11.5662651,3.828125 L20.4337349,3.828125 Z M16,7.75195313 C14.935241,7.75195313 14.0722892,8.60879517 14.0722892,9.66601563 C14.0722892,10.7232361 14.935241,11.5800781 16,11.5800781 C17.064759,11.5800781 17.9277108,10.7232361 17.9277108,9.66601563 C17.9277108,8.60879517 17.064759,7.75195313 16,7.75195313 Z M16,15.4082031 C14.935241,15.4082031 14.0722892,16.2650452 14.0722892,17.3222656 C14.0722892,18.3794861 14.935241,19.2363281 16,19.2363281 C17.064759,19.2363281 17.9277108,18.3794861 17.9277108,17.3222656 C17.9277108,16.2650452 17.064759,15.4082031 16,15.4082031 Z M16,23.0644531 C14.935241,23.0644531 14.0722892,23.9212952 14.0722892,24.9785156 C14.0722892,26.0357361 14.935241,26.8925781 16,26.8925781 C17.064759,26.8925781 17.9277108,26.0357361 17.9277108,24.9785156 C17.9277108,23.9212952 17.064759,23.0644531 16,23.0644531 Z"></path>
                </g>
            </g>
        </g>
    </g>
</svg>